<?xml version="1.0" encoding="UTF-8"?>
<svg version="1.1" xmlns="http://www.w3.org/2000/svg" width="1321" height="413">
<path d="M0 0 C1.65 0 3.3 0 5 0 C9.97887503 14.75600946 14.74572677 29.56835697 19.375 44.4375 C19.70148529 45.48348358 20.02797058 46.52946716 20.36434937 47.60714722 C24.6196251 61.24033968 28.79760915 74.89208963 32.85668945 88.58496094 C35.65953529 97.99087475 38.66121045 107.3243907 41.70401001 116.65457153 C44.60726162 125.56432042 47.37672864 134.50307694 50 143.5 C52.84127832 153.24131947 55.86104721 162.91398953 59 172.5625 C62.40484716 183.02960413 65.73450702 193.51482992 68.94775391 204.04272461 C70.82377712 210.18601336 72.72224148 216.32151301 74.6484375 222.44921875 C74.87484924 223.17018234 75.10126099 223.89114594 75.33453369 224.63395691 C76.2326115 227.49305399 77.13079177 230.35210766 78.03369141 233.20968628 C84.369124 253.261752 84.369124 253.261752 83 256 C79.28406287 255.77905239 78.0794068 255.07869463 75.38671875 252.41015625 C74.47417707 251.30471549 73.57504686 250.18810746 72.6875 249.0625 C72.20385986 248.46985352 71.72021973 247.87720703 71.22192383 247.26660156 C69.80190714 245.52084544 68.3989299 243.76267243 67 242 C66.34 241.17886719 65.68 240.35773438 65 239.51171875 C63.76915389 237.9758138 62.54407891 236.43526973 61.32421875 234.890625 C59.37157064 232.46212147 57.39224101 230.06317413 55.39453125 227.671875 C54.75427002 226.90327148 54.11400879 226.13466797 53.4543457 225.34277344 C52.16388408 223.79583156 50.86951895 222.25213664 49.57104492 220.71191406 C48.9804126 220.00260742 48.38978027 219.29330078 47.78125 218.5625 C47.24564453 217.92441406 46.71003906 217.28632813 46.15820312 216.62890625 C45 215 45 215 45 213 C44.34 213 43.68 213 43 213 C41.58984375 211.41796875 41.58984375 211.41796875 39.9375 209.1875 C37.31131374 205.71467875 34.64138862 202.29996131 31.875 198.9375 C29.21274248 195.70023108 26.55760494 192.45813145 23.921875 189.19921875 C22.8229474 187.84112096 21.72398852 186.48304849 20.625 185.125 C20.07803467 184.44864502 19.53106934 183.77229004 18.9675293 183.07543945 C16.25697105 179.7354094 13.52315506 176.42139043 10.72265625 173.15625 C10.2107373 172.55925293 9.69881836 171.96225586 9.17138672 171.34716797 C8.20230022 170.22246639 7.22884361 169.10151145 6.25048828 167.98486328 C3 164.21722414 3 164.21722414 3 162 C2.34 162 1.68 162 1 162 C1 162.66 1 163.32 1 164 C-0.62498262 165.7298202 -2.28600109 167.36052279 -4 169 C-5.58770707 170.5580555 -7.17076465 172.12085824 -8.75 173.6875 C-9.91789062 174.83798828 -9.91789062 174.83798828 -11.109375 176.01171875 C-13.05230615 177.8610699 -13.05230615 177.8610699 -14 180 C-14.66 180 -15.32 180 -16 180 C-16.24363281 180.57234375 -16.48726562 181.1446875 -16.73828125 181.734375 C-18.22517298 184.40433538 -19.98083908 186.13829007 -22.1875 188.25 C-25.10658629 191.09914013 -27.90988554 193.96370846 -30.5625 197.0625 C-33.55717456 200.5551343 -36.75437537 203.77353883 -40.03125 207 C-41.93986455 208.93891002 -43.72710552 210.93699551 -45.5 213 C-48.51641923 216.51001511 -51.73095132 219.75051276 -55.02734375 222.99609375 C-57.57337829 225.58246151 -59.92021557 228.3153528 -62.28515625 231.06640625 C-63.96004299 232.95494597 -65.69947587 234.73155648 -67.5 236.5 C-69.8344434 238.79837033 -72.045726 241.14614293 -74.1875 243.625 C-82.46596398 253.20384217 -91.25019277 262.347832 -99.93310547 271.55810547 C-104.32240126 276.21436722 -108.69924651 280.88182881 -113.0625 285.5625 C-117.8666817 290.71617602 -122.67960932 295.86148093 -127.5 301 C-128.74612631 302.32939656 -129.99222011 303.6588236 -131.23828125 304.98828125 C-133.7959465 307.71694737 -136.35638832 310.44297825 -138.91796875 313.16796875 C-140.17456055 314.50773618 -141.43107388 315.8475772 -142.6875 317.1875 C-143.26371094 317.79916016 -143.83992188 318.41082031 -144.43359375 319.04101562 C-146.83699569 321.60750556 -149.11125626 324.14342675 -151.26953125 326.92578125 C-151.84058594 327.61027344 -152.41164062 328.29476563 -153 329 C-153.66 329 -154.32 329 -155 329 C-155.26425781 329.59296875 -155.52851563 330.1859375 -155.80078125 330.796875 C-157.04370425 333.08029054 -158.30401646 334.47426723 -160.1875 336.25 C-162.7574649 338.74015232 -165.16886874 341.28473198 -167.5 344 C-169.7455794 346.60647609 -172.04551512 349.08934521 -174.5 351.5 C-176.93389732 353.89053167 -179.21355559 356.35046262 -181.4375 358.9375 C-184.4743844 362.46354699 -187.70488881 365.72492921 -191.01953125 368.98828125 C-192.99273283 370.99261816 -194.847815 373.06048893 -196.6875 375.1875 C-202.33560857 381.69566147 -202.33560857 381.69566147 -205 384 C-206.32 384 -207.64 384 -209 384 C-210.117369 375.69083779 -206.22511598 370.09464127 -202.125 363.125 C-201.43254369 361.91951397 -200.74180102 360.71304203 -200.05273438 359.50561523 C-198.68114196 357.10617473 -197.30161411 354.71161252 -195.91503906 352.32080078 C-193.38470253 347.93303465 -190.93881077 343.50152503 -188.5 339.0625 C-185.26609577 333.22244941 -181.94376095 327.44150244 -178.55859375 321.6875 C-177.09724914 319.16768773 -175.69462324 316.62643877 -174.3125 314.0625 C-170.82246758 307.59982541 -167.15274162 301.24076695 -163.48950195 294.87524414 C-158.33287309 285.89488328 -153.42134071 276.78688739 -148.51171875 267.66992188 C-143.08030986 257.59553442 -137.53734957 247.59465971 -131.87670898 237.64746094 C-127.43159 229.81529871 -123.14006008 221.90619417 -118.87280273 213.97607422 C-114.67129935 206.18850604 -110.33239719 198.48628084 -105.9519043 190.79833984 C-101.79079589 183.46713125 -97.78426566 176.06021423 -93.8125 168.625 C-88.77522937 159.20364329 -83.56254619 149.92666744 -78.06103516 140.76953125 C-76.43944449 138.0651389 -74.84316002 135.3462145 -73.25 132.625 C-72.51523437 131.37589844 -72.51523437 131.37589844 -71.765625 130.1015625 C-67.28771137 122.23549299 -63.05208693 114.23594706 -58.80004883 106.24633789 C-51.41046708 92.37476885 -43.81078629 78.63983964 -36 65 C-34.37314616 62.15690244 -32.7462933 59.31380461 -31.11987305 56.47045898 C-30.1254733 54.73341614 -29.1296827 52.99716827 -28.13208008 51.26196289 C-21.52678427 39.74686704 -15.31004379 28.01744894 -9.03515625 16.3203125 C-6.08952119 10.83976273 -3.12550303 5.38021915 0 0 Z " fill="#FEFEFE" transform="translate(223,13)"/>
<path d="M0 0 C2.33178711 -0.23168945 2.33178711 -0.23168945 5 0 C6.47875977 1.53442383 6.47875977 1.53442383 7.69140625 3.70703125 C8.15458252 4.51108398 8.61775879 5.31513672 9.0949707 6.14355469 C9.57925537 7.02430664 10.06354004 7.90505859 10.5625 8.8125 C11.62809808 10.66918148 12.69585871 12.52462325 13.765625 14.37890625 C14.57483398 15.79647217 14.57483398 15.79647217 15.40039062 17.24267578 C17.76299416 21.31521003 20.27656116 25.28388227 22.8125 29.25 C23.80385892 30.80959495 24.79473125 32.36949929 25.78515625 33.9296875 C26.29836426 34.73760742 26.81157227 35.54552734 27.34033203 36.37792969 C30.49666708 41.36454904 33.62283023 46.37005803 36.75 51.375 C37.39598145 52.40874756 38.04196289 53.44249512 38.70751953 54.50756836 C41.88567057 59.59827504 45.05204944 64.69539253 48.1875 69.8125 C51.92608995 75.91316203 55.75514679 81.95531274 59.58325195 88 C62.37888361 92.41874536 65.1495226 96.8499694 67.875 101.3125 C71.51166169 107.25440957 75.25268621 113.12735872 79 119 C83.30918882 125.75453385 87.58312047 132.52329558 91.76171875 139.359375 C102.33185246 156.60724502 113.18608639 173.68479031 124.0234375 190.765625 C129.45313704 199.33172942 134.83024535 207.92457818 140.08422852 216.59985352 C143.04998094 221.48745529 146.10039755 226.31623874 149.17700195 231.13476562 C152.21134745 235.90389362 155.19719079 240.70318549 158.1875 245.5 C162.34361785 252.1625497 166.51082516 258.81709976 170.72265625 265.44458008 C175.84871221 273.51213781 180.81822681 281.65926652 185.71166992 289.86987305 C189.59866505 296.37499193 193.64752372 302.75099558 197.77685547 309.10546875 C204.31083272 319.22596047 210.69736 329.44481309 216.98046875 339.72265625 C218.53172241 342.2400679 220.09690788 344.74607168 221.67578125 347.24609375 C222.13388184 347.9728833 222.59198242 348.69967285 223.06396484 349.44848633 C223.96139597 350.87056213 224.86135496 352.29104665 225.76416016 353.7097168 C227.49236242 356.45134563 228.97091827 358.9127548 230 362 C228.5625 364.6875 228.5625 364.6875 227 367 C217.6243849 365.63518063 208.47251057 363.56296486 199.26403809 361.37619019 C194.55074352 360.25782103 189.83402113 359.15411368 185.1171875 358.05078125 C184.09089233 357.81061783 183.06459717 357.57045441 182.00720215 357.32301331 C168.94572349 354.27515725 155.85924092 351.33731168 142.77413177 348.39299011 C125.33988051 344.4697628 107.90706023 340.54252457 90.5 336.5 C74.36340703 332.75290337 58.20531154 329.10256617 42.04469299 325.46081161 C5.03229894 317.11934366 5.03229894 317.11934366 -11.73046875 313.26635742 C-13.39628211 312.88364003 -15.06229481 312.50178918 -16.72851562 312.12084961 C-18.97066022 311.60790615 -21.21201363 311.09165498 -23.453125 310.57421875 C-24.68192383 310.29151123 -25.91072266 310.00880371 -27.17675781 309.7175293 C-30 309 -30 309 -32 308 C-32 306.35 -32 304.7 -32 303 C-19.75512343 300.59882277 -7.46172497 298.58614454 4.86260986 296.64025879 C10.41962183 295.76258962 15.9754147 294.87726978 21.53125 293.9921875 C23.16339951 293.73236084 23.16339951 293.73236084 24.82852173 293.46728516 C36.8045183 291.55796425 48.76620143 289.56776418 60.72460938 287.55126953 C66.44017511 286.58930267 72.15770263 285.63911069 77.875 284.6875 C79.85157085 284.35812302 81.8281343 284.02870161 83.8046875 283.69921875 C85.203125 283.46614583 86.6015625 283.23307292 88 283 C87.62221642 274.93162219 85.11047273 267.83666978 82.42437744 260.30541992 C81.04349618 256.43089717 79.69542934 252.54494213 78.34375 248.66015625 C77.92598801 247.4629747 77.92598801 247.4629747 77.49978638 246.24160767 C74.58633099 237.86699131 71.83906991 229.4409879 69.125 221 C68.89540588 220.28725922 68.66581177 219.57451843 68.42926025 218.84017944 C65.52357663 209.81561534 62.63431462 200.78521657 59.83642578 191.7265625 C58.85363995 188.56921734 57.79890668 185.47017927 56.62524414 182.37792969 C54.86192413 177.7019175 53.31300504 172.96574419 51.77734375 168.2109375 C51.47594482 167.28312973 51.1745459 166.35532196 50.86401367 165.3993988 C50.22061662 163.41857107 49.57796612 161.43750072 48.93600464 159.45620728 C47.24276294 154.2311653 45.54349499 149.00808569 43.84375 143.78515625 C43.50810532 142.75361923 43.17246063 141.72208221 42.8266449 140.6592865 C40.23346736 132.69786761 37.60040224 124.75085654 34.9375 116.8125 C30.62092714 103.93618945 26.41907193 91.02395495 22.22653198 78.10684204 C18.29082287 65.98467582 14.31184849 53.87835857 10.26660156 41.79229736 C9.51196024 39.5357636 8.75943545 37.27853688 8.0078125 35.02099609 C7.77008118 34.30696625 7.53234985 33.5929364 7.28741455 32.85726929 C6.82635511 31.47222553 6.36537456 30.08715551 5.90447998 28.70205688 C4.56866168 24.69194345 3.21435788 20.68851075 1.8515625 16.6875 C1.27526036 14.95859357 0.69965609 13.22945424 0.125 11.5 C-0.13216797 10.76458984 -0.38933594 10.02917969 -0.65429688 9.27148438 C-1.6269997 6.2949553 -2.19063126 4.542698 -1.1328125 1.53125 C-0.75898438 1.0259375 -0.38515625 0.520625 0 0 Z " fill="#FEFEFE" transform="translate(242,12)"/>
<path d="M0 0 C0.99 0.33 1.98 0.66 3 1 C3.34089688 6.47404252 2.36687414 10.30716575 -0.04296875 15.13671875 C-0.36256058 15.80492142 -0.6821524 16.47312408 -1.01142883 17.16157532 C-2.05790795 19.34300936 -3.12272341 21.51494715 -4.1875 23.6875 C-4.92597506 25.21998318 -5.66293579 26.75319694 -6.3984375 28.28710938 C-7.8887868 31.3935207 -9.38462842 34.49718958 -10.88427734 37.59912109 C-13.82647285 43.70035762 -16.66515409 49.84821301 -19.5 56 C-23.08606465 63.7591577 -26.70353118 71.50194803 -30.36328125 79.2265625 C-31.10937899 80.80338353 -31.85547275 82.38020644 -32.6015625 83.95703125 C-34.05434286 87.02678043 -35.51219421 90.09405568 -36.97265625 93.16015625 C-37.63429321 94.55720708 -38.29576021 95.95433843 -38.95703125 97.3515625 C-39.26570633 97.99598297 -39.57438141 98.64040344 -39.89241028 99.30435181 C-41.48828698 102.51190852 -41.48828698 102.51190852 -42 106 C-29.00947133 111.20002101 -15.69490961 114.3116434 -2.07316589 117.38206482 C7.21755297 119.48627427 16.47253365 121.74034288 25.73223877 123.97625732 C43.32579656 128.22330164 60.93397157 132.40067512 78.5625 136.5 C95.68834588 140.48300189 112.77328796 144.61604395 129.84475708 148.82562256 C145.08470522 152.58134336 160.34930381 156.20873111 175.64398193 159.73449707 C190.80950569 163.23214787 205.93769834 166.86897659 221.05126953 170.58447266 C222.70083717 170.98994623 224.35041376 171.39538337 226 171.80078125 C226.78655975 171.99414062 227.57311951 172.1875 228.3835144 172.38671875 C232.95776 173.50833198 237.5371425 174.60302567 242.125 175.66796875 C243.12418457 175.9002417 244.12336914 176.13251465 245.15283203 176.37182617 C246.88693028 176.77199073 248.62217941 177.16722307 250.35888672 177.5559082 C253.7487585 178.33798336 256.06911948 179.04607965 259 181 C259.1875 183.625 259.1875 183.625 259 186 C161.79850081 186.58540584 64.59700594 187.06405751 -63.82199484 187.12283063 C-72.83066203 187.12412142 -81.83932595 187.12788196 -90.84799194 187.13256836 C-103.00051028 187.13865442 -115.15301741 187.1386991 -127.30553627 187.13431931 C-131.79933281 187.13284348 -136.29312075 187.13354965 -140.78691673 187.13615799 C-145.95864615 187.13900873 -151.13035111 187.13714351 -156.30207789 187.13136959 C-158.1844563 187.1300641 -160.06683676 187.13046819 -161.94921434 187.13267231 C-164.4924883 187.13537543 -167.03568035 187.13201234 -169.57894897 187.12698364 C-170.32583644 187.12921421 -171.07272391 187.13144477 -171.84224433 187.13374293 C-176.88582615 187.11417385 -176.88582615 187.11417385 -178 186 C-178.54177332 182.98271339 -178.62323087 180.90310595 -176.83840942 178.31677246 C-175.11628171 176.437724 -173.32264545 174.67525459 -171.47265625 172.921875 C-170.80914658 172.26922668 -170.1456369 171.61657837 -169.46202087 170.94415283 C-167.3425507 168.86483481 -165.20349645 166.80712533 -163.0625 164.75 C-160.92954199 162.67440409 -158.80075506 160.59463462 -156.6736908 158.51300049 C-155.34924638 157.21974037 -154.02054357 155.93082453 -152.68727112 154.64666748 C-152.08672409 154.06556213 -151.48617706 153.48445679 -150.86743164 152.88574219 C-150.33670547 152.37533386 -149.80597931 151.86492554 -149.25917053 151.33905029 C-147.88170221 150.0025093 -147.88170221 150.0025093 -147 148 C-146.34 148 -145.68 148 -145 148 C-145 147.34 -145 146.68 -145 146 C-144.34 146 -143.68 146 -143 146 C-143 145.34 -143 144.68 -143 144 C-142.34 144 -141.68 144 -141 144 C-141 143.34 -141 142.68 -141 142 C-139.625 140.375 -139.625 140.375 -138 139 C-137.34 139 -136.68 139 -136 139 C-136 138.34 -136 137.68 -136 137 C-135.34 137 -134.68 137 -134 137 C-134 136.34 -134 135.68 -134 135 C-133.34 135 -132.68 135 -132 135 C-132 134.34 -132 133.68 -132 133 C-131.34 133 -130.68 133 -130 133 C-129.67 132.01 -129.34 131.02 -129 130 C-128.34 130 -127.68 130 -127 130 C-127 129.34 -127 128.68 -127 128 C-126.34 128 -125.68 128 -125 128 C-125 127.34 -125 126.68 -125 126 C-124.34 126 -123.68 126 -123 126 C-122.78038101 125.45473663 -122.56076202 124.90947327 -122.33448792 124.34768677 C-120.56617784 121.23680198 -118.1785275 118.92428771 -115.64819336 116.43701172 C-115.10330765 115.89344025 -114.55842194 115.34986877 -113.99702454 114.78982544 C-112.19918743 112.99846709 -110.39448493 111.2141888 -108.58984375 109.4296875 C-107.33905653 108.18517169 -106.08878374 106.94013866 -104.83900452 105.6946106 C-101.55072025 102.41962098 -98.25691338 99.15024724 -94.96148682 95.88244629 C-89.68183667 90.64594277 -84.40892001 85.40267992 -79.13919258 80.15619278 C-77.2951823 78.32242695 -75.44780872 76.49209934 -73.6000824 74.66207886 C-72.47407823 73.5429004 -71.34818219 72.42361314 -70.22241211 71.30419922 C-69.44705612 70.53894928 -69.44705612 70.53894928 -68.65603638 69.75823975 C-65.99139825 67.13408698 -65.99139825 67.13408698 -64 64 C-63.34 64 -62.68 64 -62 64 C-61.78828156 63.46296448 -61.57656311 62.92592896 -61.35842896 62.37261963 C-59.48799765 59.10574136 -56.92302024 56.66146279 -54.26513672 54.03808594 C-53.38687729 53.15938843 -53.38687729 53.15938843 -52.49087524 52.26293945 C-50.55851644 50.33197161 -48.61917484 48.40818053 -46.6796875 46.484375 C-45.33689544 45.14531389 -43.99454487 43.80580991 -42.65261841 42.46588135 C-39.12246283 38.94335571 -35.58634194 35.42687797 -32.0489502 31.91162109 C-28.43917149 28.32231449 -24.83505985 24.72732744 -21.23046875 21.1328125 C-14.15918442 14.08296682 -7.08158587 7.03949663 0 0 Z " fill="#FEFEFE" transform="translate(212,214)"/>
<path d="M0 0 C8.58 0 17.16 0 26 0 C27.051875 3.196875 28.10375 6.39375 29.1875 9.6875 C32.55487483 19.83256573 36.20375798 29.77924367 40.375 39.625 C43.89250027 47.96361087 46.91298734 56.49514667 50 65 C52.80535016 62.19464984 53.58287008 58.81067925 54.8125 55.125 C56.84604883 49.06335309 59.15172122 43.1790087 61.63745117 37.28808594 C63.87307061 31.89311684 65.95131893 26.43907265 68.02197266 20.97924805 C68.75909586 19.03855246 69.50251053 17.10033759 70.24609375 15.16210938 C70.72173631 13.91160362 71.1970106 12.66095771 71.671875 11.41015625 C72.0956543 10.29777588 72.51943359 9.18539551 72.95605469 8.03930664 C74.17103189 4.72145313 74.17103189 4.72145313 75 0 C83.58 0 92.16 0 101 0 C101.4125 3.28582031 101.825 6.57164062 102.25 9.95703125 C103.8747402 22.58407343 105.90262682 35.13178994 108 47.6875 C108.68957181 51.83689812 109.37674444 55.98668831 110.0625 60.13671875 C110.22782227 61.13516815 110.39314453 62.13361755 110.56347656 63.162323 C111.79785506 70.66008339 112.95277117 78.16777005 114.04907227 85.68693542 C114.21620728 86.82767265 114.21620728 86.82767265 114.38671875 87.99145508 C114.48170654 88.64841873 114.57669434 89.30538239 114.67456055 89.98225403 C115.05362627 92.33248642 115.53312483 94.66562413 116 97 C106.1 97 96.2 97 86 97 C85.51789063 93.57882812 85.03578125 90.15765625 84.5390625 86.6328125 C84.06644015 83.29319672 83.59283679 79.95372143 83.11914062 76.61425781 C82.79226953 74.30613447 82.46640696 71.99786806 82.14160156 69.68945312 C81.67262206 66.35768464 81.19993162 63.0264598 80.7265625 59.6953125 C80.58376862 58.67511017 80.44097473 57.65490784 80.29385376 56.60379028 C79.40124816 50.35362475 78.31013004 44.17629703 77 38 C73.71628864 46.10447909 70.50934044 54.22825253 67.47338867 62.42895508 C65.91349116 66.6211481 64.30180655 70.78983723 62.65625 74.94921875 C62.24866455 75.98046875 61.8410791 77.01171875 61.42114258 78.07421875 C60.61207842 80.11601296 59.79953387 82.15643222 58.9831543 84.1953125 C58.61101807 85.13503906 58.23888184 86.07476562 57.85546875 87.04296875 C57.52184326 87.87852295 57.18821777 88.71407715 56.84448242 89.57495117 C55.80445354 92.38289744 55.80445354 92.38289744 55 97 C47.08 97 39.16 97 31 97 C30.34 94.36 29.68 91.72 29 89 C28.38181357 87.19471204 27.72739315 85.40121312 27.02880859 83.62548828 C26.64856537 82.65153107 26.26832214 81.67757385 25.8765564 80.67410278 C25.47127716 79.64985199 25.06599792 78.6256012 24.6484375 77.5703125 C24.22954254 76.49876923 23.81064758 75.42722595 23.37905884 74.32321167 C22.04896939 70.92198515 20.71255568 67.52329662 19.375 64.125 C18.03084166 60.70507714 16.688127 57.28461723 15.34951782 53.86251831 C14.51823471 51.73776229 13.68366807 49.61428748 12.84555054 47.49221802 C12.47161163 46.53717377 12.09767273 45.58212952 11.71240234 44.59814453 C11.38090179 43.75623566 11.04940125 42.91432678 10.70785522 42.04690552 C10 40 10 40 10 38 C9.34 38 8.68 38 8 38 C7.96261719 38.7209082 7.92523437 39.44181641 7.88671875 40.18457031 C7.25429026 50.16391979 5.66862018 59.90083228 4 69.75 C3.58702909 72.20892186 3.17574655 74.66810397 2.76708984 77.12774658 C2.5149624 78.64314086 2.26028888 80.1581149 2.00244141 81.67254639 C1.14979045 86.7680179 0.53625039 91.86135535 0 97 C-5.28 97 -10.56 97 -16 97 C-15.76925781 95.84371094 -15.53851562 94.68742187 -15.30078125 93.49609375 C-12.94857186 81.52410833 -10.91482918 69.51796894 -9.00610352 57.46777344 C-7.84634644 50.16381181 -6.64661438 42.86878 -5.3828125 35.58203125 C-5.24674591 34.79654907 -5.11067932 34.01106689 -4.9704895 33.20178223 C-4.30793824 29.38342967 -3.6404831 25.56600085 -2.96728516 21.74951172 C-2.72288625 20.34734738 -2.4785785 18.94516714 -2.234375 17.54296875 C-1.91291504 15.7180188 -1.91291504 15.7180188 -1.58496094 13.85620117 C-0.88773626 9.2599308 -0.46257805 4.62578049 0 0 Z " fill="#FEFEFE" transform="translate(894,253)"/>
<path d="M0 0 C7.92 0 15.84 0 24 0 C24.69996094 1.69253906 25.39992188 3.38507813 26.12109375 5.12890625 C28.7639446 11.47193394 31.49769055 17.77280453 34.24749756 24.07003784 C39.08019172 35.14346904 43.79138858 46.25872737 48.375 57.4375 C51.77887129 65.73619895 55.27814526 73.92889306 59.16015625 82.015625 C62.81793962 89.78606726 66.011753 97.77621263 69.33984375 105.69140625 C74.88438945 118.97572718 74.88438945 118.97572718 81 132 C70.77 132 60.54 132 50 132 C48.68 128.7 47.36 125.4 46 122 C45.17089676 120.00365834 44.33609881 118.00965836 43.4921875 116.01953125 C43.06292969 115.00052734 42.63367188 113.98152344 42.19140625 112.93164062 C41.30842227 110.83946643 40.42297496 108.74833027 39.53515625 106.65820312 C38.89513672 105.13549805 38.89513672 105.13549805 38.2421875 103.58203125 C37.8591748 102.67686768 37.47616211 101.7717041 37.08154297 100.83911133 C35.85808309 97.62746011 34.94416011 94.30456038 34 91 C15.52 91.33 -2.96 91.66 -22 92 C-24.31 97.61 -26.62 103.22 -29 109 C-30.65059984 112.67633601 -32.30844066 116.34324673 -34 120 C-35.84728718 124.03324367 -37.11746524 127.5873262 -38 132 C-43.28 132 -48.56 132 -54 132 C-52.55713934 128.39284835 -51.07700022 124.82782381 -49.53125 121.265625 C-43.96610639 108.39084545 -38.50422431 95.4980638 -33.38671875 82.43652344 C-31.15803088 76.77450348 -28.77145163 71.22260061 -26.22583008 65.69604492 C-24.23569085 61.31900698 -22.39956672 56.8804842 -20.5625 52.4375 C-20.1507251 51.44387451 -19.7389502 50.45024902 -19.31469727 49.42651367 C-18.39548583 47.20688891 -17.47715797 44.98689809 -16.55957031 42.76660156 C-15.12559306 39.29951481 -13.6826967 35.83617895 -12.23908997 32.37309265 C-10.95324841 29.2859554 -9.67152989 26.19711638 -8.39059448 23.10794067 C-7.75794244 21.58425623 -7.12377945 20.06119822 -6.48806763 18.53878784 C-5.59057652 16.38830495 -4.6989487 14.23547668 -3.80859375 12.08203125 C-3.53925018 11.44026947 -3.26990662 10.79850769 -2.99240112 10.13729858 C-1.57611812 6.69370025 -0.74033642 3.70168212 0 0 Z M4 25 C3.58488159 26.09501831 3.58488159 26.09501831 3.16137695 27.2121582 C1.88209792 30.58034948 0.59733172 33.94642314 -0.6875 37.3125 C-1.34008789 39.03436523 -1.34008789 39.03436523 -2.00585938 40.79101562 C-4.00102136 46.00799474 -6.02981524 51.16902789 -8.39453125 56.23046875 C-11.91167257 64.01880118 -14.90265536 72.03539949 -18 80 C-2.49 80 13.02 80 29 80 C19.59991333 56.06507604 19.59991333 56.06507604 9.19140625 32.55859375 C8.03255282 30.06990852 6.99459464 27.55818993 6 25 C5.34 25 4.68 25 4 25 Z " fill="#FEFEFE" transform="translate(541,219)"/>
<path d="M0 0 C7.92 0 15.84 0 24 0 C24.70125 2.041875 25.4025 4.08375 26.125 6.1875 C28.18132297 12.17502865 30.73246171 17.82762859 33.41210938 23.56225586 C35.94965683 29.05598367 38.31657964 34.62029857 40.6875 40.1875 C41.20441406 41.39728516 41.72132812 42.60707031 42.25390625 43.85351562 C46.14126556 52.9560924 49.99598231 62.07246391 53.84765625 71.19018555 C57.27606806 79.30126112 60.72329767 87.40414388 64.1875 95.5 C64.68797852 96.66966309 65.18845703 97.83932617 65.70410156 99.04443359 C68.98111556 106.68106589 72.31300181 114.29088339 75.76635742 121.84960938 C78 126.78783238 78 126.78783238 78 129 C78.66 129 79.32 129 80 129 C80 129.99 80 130.98 80 132 C69.77 132 59.54 132 49 132 C48.21625 129.855 47.4325 127.71 46.625 125.5 C42.32734163 114.23717118 37.63650904 103.12762169 33 92 C14.52 91.67 -3.96 91.34 -23 91 C-23.99 93.97 -24.98 96.94 -26 100 C-26.86325721 102.21294549 -27.74984225 104.41699225 -28.6640625 106.609375 C-29.14617187 107.77597656 -29.62828125 108.94257813 -30.125 110.14453125 C-31.13169422 112.56426763 -32.13952171 114.98353282 -33.1484375 117.40234375 C-33.62796875 118.56378906 -34.1075 119.72523438 -34.6015625 120.921875 C-35.03807129 121.96956055 -35.47458008 123.01724609 -35.92431641 124.09667969 C-37.19405012 127.29088932 -37.19405012 127.29088932 -38 132 C-43.28 132 -48.56 132 -54 132 C-52.9565779 127.82631159 -51.40707923 124.05877673 -49.7109375 120.125 C-49.20837685 118.94896713 -49.20837685 118.94896713 -48.69566345 117.74917603 C-47.97081763 116.05339533 -47.24471077 114.35815322 -46.51748657 112.66339111 C-44.56844262 108.1197348 -42.63019632 103.57147649 -40.69140625 99.0234375 C-40.29573959 98.09574554 -39.90007294 97.16805359 -39.49241638 96.21224976 C-35.72336672 87.36744226 -32.00550558 78.5017928 -28.3125 69.625 C-28.00965088 68.89724365 -27.70680176 68.1694873 -27.39477539 67.41967773 C-22.11653596 54.72968189 -16.87671135 42.02379657 -11.65356445 29.31103516 C-11.38101334 28.64778229 -11.10846222 27.98452942 -10.82765198 27.30117798 C-10.2981376 26.01235977 -9.76886493 24.72344222 -9.23985291 23.43441772 C-7.21199757 18.49868901 -5.14756198 13.57886415 -3.06494141 8.66601562 C-1.92834269 5.82061031 -0.96892663 2.90677988 0 0 Z M4 24 C3.63648438 25.00417969 3.27296875 26.00835937 2.8984375 27.04296875 C0.55464591 33.44580991 -1.8062056 39.78076429 -4.75 45.9375 C-7.90098338 52.57647033 -10.63971371 59.36802568 -13.375 66.1875 C-14.0551416 67.8744397 -14.0551416 67.8744397 -14.74902344 69.59545898 C-15.16958008 70.65063721 -15.59013672 71.70581543 -16.0234375 72.79296875 C-16.40419434 73.7471167 -16.78495117 74.70126465 -17.17724609 75.68432617 C-18.11159802 77.90451503 -18.11159802 77.90451503 -18 80 C-2.82 80 12.36 80 28 80 C25.75036977 73.10768056 25.75036977 73.10768056 23.14648438 66.41748047 C22.6508197 65.25114578 22.6508197 65.25114578 22.1451416 64.06124878 C21.79818237 63.25470856 21.45122314 62.44816833 21.09375 61.6171875 C20.54479065 60.32942917 20.54479065 60.32942917 19.98474121 59.01565552 C18.82646737 56.3006772 17.66332618 53.58781672 16.5 50.875 C15.71972846 49.04831528 14.93977781 47.22149347 14.16015625 45.39453125 C12.11085428 40.59460019 10.05655392 35.79682764 8 31 C7.41860486 29.64339833 6.83722331 28.28679083 6.25585938 26.93017578 C5.84142578 25.96321777 5.42699219 24.99625977 5 24 C4.67 24 4.34 24 4 24 Z " fill="#FEFEFE" transform="translate(1226,219)"/>
<path d="M0 0 C56.39521719 0 56.39521719 0 66.1875 9.73828125 C71.17964133 15.96769899 72.65345147 22.57664855 72.3203125 30.4609375 C71.55684383 36.5128233 68.72902465 42.10009006 64 46 C60.09790904 48.22612761 56.0956991 50.15791524 52 52 C56.50176627 60.14521912 61.48834891 67.95310344 66.5625 75.75 C67.19937744 76.73170166 67.83625488 77.71340332 68.49243164 78.72485352 C71.80330349 83.78735525 75.18996113 88.708607 78.94897461 93.45019531 C80 95 80 95 80 97 C69.44 97 58.88 97 48 97 C47.01 94.36 46.02 91.72 45 89 C44.04925693 87.11950819 43.05287808 85.26111117 42.00390625 83.43359375 C41.44509766 82.45326172 40.88628906 81.47292969 40.31054688 80.46289062 C39.44526367 78.96532227 39.44526367 78.96532227 38.5625 77.4375 C37.98951172 76.43525391 37.41652344 75.43300781 36.82617188 74.40039062 C35.7533494 72.52511176 34.67821036 70.6511546 33.59985352 68.77905273 C31.7257747 65.52365228 29.86364761 62.26138331 28 59 C28 71.54 28 84.08 28 97 C18.76 97 9.52 97 0 97 C0 64.99 0 32.98 0 0 Z M27 12 C27 22.89 27 33.78 27 45 C35.16374202 45.53698709 35.16374202 45.53698709 41 42 C45.05436441 36.35284957 45.60163044 30.78505441 45 24 C44.0616322 19.47515864 42.74443145 16.70898233 39.375 13.5 C35.24483629 11.3907923 35.24483629 11.3907923 27 12 Z " fill="#FEFEFE" transform="translate(1082,253)"/>
<path d="M0 0 C0.66 0 1.32 0 2 0 C3.51984883 1.67535459 4.96706453 3.41705622 6.375 5.1875 C7.14585937 6.15042969 7.91671875 7.11335937 8.7109375 8.10546875 C9.46632812 9.06066406 10.22171875 10.01585937 11 11 C11.75539062 11.90363281 12.51078125 12.80726563 13.2890625 13.73828125 C15 16 15 16 15 18 C15.66 18 16.32 18 17 18 C18.33984375 19.51171875 18.33984375 19.51171875 19.9375 21.6875 C22.91678373 25.63520515 26.03044704 29.4351337 29.25 33.1875 C33.09582989 37.68574746 36.81123841 42.26066985 40.4375 46.9375 C44.80394603 52.56629475 49.35343224 58.00818037 54.02905273 63.38256836 C61 71.40323602 61 71.40323602 61 74 C61.66 74 62.32 74 63 74 C63.33 75.32 63.66 76.64 64 78 C63.35251801 78.10164963 62.70503601 78.20329926 62.03793335 78.30802917 C53.81661988 79.59905454 45.5956598 80.89231895 37.375 82.1875 C36.72087883 82.29055702 36.06675766 82.39361404 35.39281464 82.49979401 C17.8941804 85.25741322 0.40476838 88.05410091 -17.0625 91.00390625 C-25.36405315 92.40499523 -33.68037814 93.71119208 -42 95 C-41.33347105 90.58740958 -39.74445213 86.73278261 -37.9375 82.6875 C-37.62514404 81.97948242 -37.31278809 81.27146484 -36.9909668 80.54199219 C-34.90393815 75.86729677 -32.65645041 71.29987894 -30.3125 66.75 C-26.48786901 59.30344345 -23.20474261 51.64163435 -19.9375 43.9375 C-15.80523369 34.19400898 -11.562984 24.54887871 -7 15 C-5.68224524 12.1899446 -4.37239962 9.37622385 -3.0625 6.5625 C-2.47018815 5.29290526 -1.87775388 4.02336762 -1.28515625 2.75390625 C-0.86105469 1.84511719 -0.43695313 0.93632812 0 0 Z " fill="#FEFEFE" transform="translate(235,211)"/>
<path d="M0 0 C8.25 0 16.5 0 25 0 C27.041875 5.0428125 27.041875 5.0428125 29.125 10.1875 C32.13130639 17.57705529 35.25889669 24.85602076 38.671875 32.06640625 C40.07761469 35.17143716 41.3012491 38.30965345 42.5 41.5 C44.07704867 45.69385497 45.77232559 49.76220118 47.6875 53.8125 C51.16355303 61.17885071 54.23608356 68.70532312 57.30932617 76.24731445 C59.66624718 81.98306785 62.19454178 87.54171586 65.07983398 93.0324707 C66 95 66 95 66 97 C55.11 97 44.22 97 33 97 C29.7 88.42 26.4 79.84 23 71 C11.12 70.67 -0.76 70.34 -13 70 C-13.99 72.97 -14.98 75.94 -16 79 C-17.02118392 81.63678834 -18.05392451 84.25920761 -19.125 86.875 C-21.17180835 91.89600238 -21.17180835 91.89600238 -23 97 C-28.28 97 -33.56 97 -39 97 C-38.2932007 94.1728028 -37.61618093 91.89244955 -36.49707031 89.26391602 C-36.19295227 88.54538956 -35.88883423 87.8268631 -35.57550049 87.08656311 C-35.08179962 85.93189796 -35.08179962 85.93189796 -34.578125 84.75390625 C-34.2362616 83.94694809 -33.89439819 83.13998993 -33.54217529 82.30857849 C-32.44755266 79.7253668 -31.34914027 77.14379237 -30.25 74.5625 C-28.81509841 71.18990372 -27.38240442 67.81638921 -25.953125 64.44140625 C-25.60702682 63.62422623 -25.26092865 62.8070462 -24.90434265 61.96510315 C-22.50435953 56.26931718 -20.23342305 50.5415477 -18.07836914 44.74804688 C-16.90086498 41.74737065 -15.56896122 38.84936239 -14.1875 35.9375 C-11.52929597 30.28365152 -9.13554855 24.54934194 -6.8125 18.75 C-6.47951904 17.92234131 -6.14653809 17.09468262 -5.8034668 16.24194336 C-3.66667986 10.86372744 -1.8388184 5.51645519 0 0 Z M4 26 C3.63648438 26.969375 3.27296875 27.93875 2.8984375 28.9375 C-0.734375 38.625 -4.3671875 48.3125 -8 58 C0.58 58 9.16 58 18 58 C15.49902303 50.48344613 15.49902303 50.48344613 12.73828125 43.08984375 C12.34189453 42.08115234 11.94550781 41.07246094 11.53710938 40.03320312 C10.93092773 38.50083008 10.93092773 38.50083008 10.3125 36.9375 C9.89677734 35.88111328 9.48105469 34.82472656 9.05273438 33.73632812 C8.03723432 31.15672453 7.01961715 28.57797839 6 26 C5.34 26 4.68 26 4 26 Z " fill="#FEFEFE" transform="translate(804,253)"/>
<path d="M0 0 C25.74 0 51.48 0 78 0 C78 4.62 78 9.24 78 14 C65.13 13.505 65.13 13.505 52 13 C52.33 40.72 52.66 68.44 53 97 C43.76 97 34.52 97 25 97 C25 69.61 25 42.22 25 14 C16.75 14 8.5 14 0 14 C0 9.38 0 4.76 0 0 Z " fill="#FEFEFE" transform="translate(697,253)"/>
<path d="M0 0 C7.81353663 5.60312824 13.51865085 13.24031722 15.87109375 22.6171875 C17.90983298 35.42696498 16.64017593 47.6528362 8.9765625 58.35546875 C1.30159825 67.74198606 -8.85832356 71.77914785 -20.6875 73.390625 C-37.26995082 74.56914088 -52.89524655 73.70375146 -66.6875 63.390625 C-66.6875 62.730625 -66.6875 62.070625 -66.6875 61.390625 C-67.3475 61.390625 -68.0075 61.390625 -68.6875 61.390625 C-70.08984375 59.73828125 -70.08984375 59.73828125 -71.625 57.453125 C-72.12902344 56.72222656 -72.63304687 55.99132812 -73.15234375 55.23828125 C-77.07806101 47.95622557 -78.21907827 41.16854724 -78.125 32.953125 C-78.11742676 32.02733643 -78.10985352 31.10154785 -78.10205078 30.14770508 C-77.9424516 23.55113295 -77.25881819 18.07580755 -73.6875 12.390625 C-73.26339844 11.68035156 -72.83929687 10.97007812 -72.40234375 10.23828125 C-66.49325981 1.39934511 -56.60437331 -3.77884024 -46.39306641 -6.13989258 C-30.9818754 -8.81411387 -13.60844554 -8.14924355 0 0 Z M-52.22265625 7.65625 C-58.16222693 14.68870169 -60.07159177 23.64154 -60 32.640625 C-59.99436035 33.38497803 -59.9887207 34.12933105 -59.98291016 34.89624023 C-59.79035146 43.70532399 -58.33274207 51.74314855 -52.53125 58.66796875 C-46.3780563 64.4170332 -39.25654272 66.2042771 -30.99609375 66.515625 C-22.4867198 66.19413744 -15.45340496 64.44247868 -9.3046875 58.33203125 C-1.90337964 49.4468863 -1.16533805 38.39795633 -1.96118164 27.24438477 C-2.79958013 18.47110596 -5.24268017 11.78259166 -11.82421875 5.79296875 C-23.09752864 -2.69155588 -41.95579272 -2.10330968 -52.22265625 7.65625 Z " fill="#FEFEFE" transform="translate(1096.6875,124.609375)"/>
<path d="M0 0 C45.27019499 0 45.27019499 0 54.5625 8.33984375 C59.00877129 13.4748038 59.53468379 17.48958802 59.34765625 24.125 C58.65353053 29.86518571 55.20210255 33.41395485 50.7734375 36.8984375 C45.86519883 39.94716725 40.73220429 41.19140928 35 41 C40.12374263 46.97168595 45.43458131 52.7599819 50.78515625 58.52734375 C52.99135296 60.90559264 55.18528163 63.29441066 57.37109375 65.69140625 C57.91612549 66.28735596 58.46115723 66.88330566 59.02270508 67.49731445 C60.07296161 68.64614755 61.12105805 69.79695997 62.16674805 70.94995117 C64.77135241 73.8661245 64.77135241 73.8661245 68 76 C68 76.66 68 77.32 68 78 C64.41728224 78.1743959 60.83565398 78.28087658 57.25 78.375 C56.23421875 78.42527344 55.2184375 78.47554688 54.171875 78.52734375 C51.33799124 78.58327567 48.78163889 78.55007561 46 78 C43.69140625 75.40625 43.69140625 75.40625 42 72 C41.04158542 70.84526338 40.04215229 69.72376707 39.01171875 68.6328125 C38.47345459 68.06103271 37.93519043 67.48925293 37.38061523 66.90014648 C36.82188721 66.31434814 36.26315918 65.7285498 35.6875 65.125 C34.52523416 63.89008241 33.36376942 62.65441036 32.203125 61.41796875 C31.64947266 60.82935059 31.09582031 60.24073242 30.52539062 59.63427734 C26.12713655 54.92206339 22.02634751 50.03293439 18 45 C18 55.89 18 66.78 18 78 C11.73 78 5.46 78 -1 78 C-0.67 52.26 -0.34 26.52 0 0 Z M17 7 C17 16.9 17 26.8 17 37 C28.86729173 37.07153382 28.86729173 37.07153382 38.66796875 31.62890625 C41.17741085 28.56017501 41.62626118 24.8662637 42 21 C41.16477664 15.43184427 39.35286529 12.54302989 35 9 C28.88582797 6.1953202 28.88582797 6.1953202 17 7 Z " fill="#FEFEFE" transform="translate(945,119)"/>
<path d="M0 0 C9.24 0 18.48 0 28 0 C28 27.72 28 55.44 28 84 C37.9 83.67 47.8 83.34 58 83 C58 87.62 58 92.24 58 97 C38.86 97 19.72 97 0 97 C0 64.99 0 32.98 0 0 Z " fill="#FEFEFE" transform="translate(635,253)"/>
<path d="M0 0 C1.10609619 0.00201416 2.21219238 0.00402832 3.35180664 0.00610352 C11.72181503 0.10888985 20.17684287 0.49467143 27.8125 4.3125 C27.8125 7.9425 27.8125 11.5725 27.8125 15.3125 C26.79414062 14.879375 25.77578125 14.44625 24.7265625 14 C12.55570944 9.10259405 -0.37816639 6.2702253 -13.0625 11.1875 C-14.45479966 11.86119338 -15.83234905 12.56689486 -17.1875 13.3125 C-17.91195312 13.65152344 -18.63640625 13.99054688 -19.3828125 14.33984375 C-21.78943313 15.6369185 -22.10527865 16.80986314 -23.1875 19.3125 C-23.8475 20.34375 -24.5075 21.375 -25.1875 22.4375 C-30.39467883 31.53063318 -30.15287986 42.93126134 -27.94140625 52.890625 C-25.4303137 60.95734717 -20.18440536 66.16601379 -12.8125 70.125 C-4.67958334 72.91477955 5.54205552 71.69090741 13.8125 70.3125 C13.8125 58.7625 13.8125 47.2125 13.8125 35.3125 C19.4225 35.3125 25.0325 35.3125 30.8125 35.3125 C31.3075 55.1125 31.3075 55.1125 31.8125 75.3125 C13.17972392 80.28124029 -9.78673088 84.76057838 -28.16796875 75.87109375 C-37.58212417 70.39538392 -43.71988383 62.62008434 -47.1875 52.3125 C-49.66202241 40.97093895 -48.73867951 28.49548652 -42.5 18.5 C-32.0073363 4.27832592 -17.02495171 -0.08307348 0 0 Z " fill="#FEFEFE" transform="translate(794.1875,117.6875)"/>
<path d="M0 0 C9.24 0 18.48 0 28 0 C28 32.01 28 64.02 28 97 C18.76 97 9.52 97 0 97 C0 64.99 0 32.98 0 0 Z " fill="#FEFEFE" transform="translate(1032,253)"/>
<path d="M0 0 C6.27 0 12.54 0 19 0 C18.98428955 1.65974854 18.9685791 3.31949707 18.95239258 5.02954102 C18.89800393 11.20006437 18.86361701 17.37056662 18.83520508 23.54125977 C18.82183639 26.20973072 18.79968395 28.87771718 18.77368164 31.54614258 C18.73720415 35.38629252 18.72025141 39.22611438 18.70703125 43.06640625 C18.69154739 44.25520889 18.67606354 45.44401154 18.66011047 46.6688385 C18.65885255 52.88997929 18.85733397 57.56317388 22 63 C27.54254425 68.54254425 32.82635214 70.23037713 40.47192383 70.38037109 C52.45807541 70.4096086 52.45807541 70.4096086 62.60546875 64.5390625 C66.67912416 60.04320751 67.11308131 56.25598521 67.20532227 50.40527344 C67.22526749 49.28441345 67.24521271 48.16355347 67.26576233 47.00872803 C67.28247482 45.80444153 67.29918732 44.60015503 67.31640625 43.359375 C67.3475779 41.50339691 67.3475779 41.50339691 67.37937927 39.60992432 C67.43365872 36.32861309 67.48391779 33.04727267 67.53222656 29.76586914 C67.58256092 26.41416896 67.6382636 23.0625628 67.69335938 19.7109375 C67.80044509 13.14069536 67.90223036 6.57038702 68 0 C70.97 0 73.94 0 77 0 C77.09319077 7.25905382 77.16401115 14.51797605 77.20724869 21.77750969 C77.22801376 25.14941602 77.25612389 28.52090938 77.30175781 31.89257812 C77.35056663 35.78005653 77.37303643 39.66695735 77.390625 43.5546875 C77.41127014 44.74988007 77.43191528 45.94507263 77.45318604 47.17648315 C77.45532931 55.26669833 76.64598588 62.77261131 71.18096924 69.10910034 C61.35661893 78.71547485 48.62230515 79.26317427 35.63769531 79.24658203 C23.17110611 79.07984311 14.56687125 76.56687125 5.6875 67.6875 C0.78997185 59.88773295 0.53710594 51.87572883 0.48828125 42.87109375 C0.47033005 41.64084976 0.45237885 40.41060577 0.43388367 39.14308167 C0.38001052 35.24125523 0.34595783 31.33954953 0.3125 27.4375 C0.28091885 24.78055352 0.2448154 22.12369224 0.20898438 19.46679688 C0.12429682 12.977952 0.05737554 6.48914152 0 0 Z " fill="#FEFEFE" transform="translate(845,119)"/>
<path d="M0 0 C1.44088989 0.01873169 1.44088989 0.01873169 2.91088867 0.0378418 C16.47955714 0.3750731 16.47955714 0.3750731 22.0625 3.4375 C23.45445915 7.61337745 21.88573219 9.57224776 20.0625 13.4375 C15.7145818 12.77872452 12.08832681 11.16285435 8.0625 9.4375 C1.15345374 7.53751228 -5.63743145 7.91815136 -11.9375 11.4375 C-14.08041019 14.65186529 -14.23775791 16.61176609 -14.3984375 20.40234375 C-13.73008476 23.35329102 -12.19437542 24.45992665 -9.9375 26.4375 C-7.3968553 27.77214267 -7.3968553 27.77214267 -4.578125 28.8046875 C-3.54429688 29.21589844 -2.51046875 29.62710938 -1.4453125 30.05078125 C0.71034495 30.88564619 2.86658708 31.71900317 5.0234375 32.55078125 C13.92959662 36.09777514 22.64971253 40.44073934 27.0625 49.4375 C28.73052869 54.89151486 28.25622084 60.20710079 26.0625 65.4375 C21.77479438 73.24518016 15.7198574 77.05196048 7.3203125 79.55078125 C2.966612 80.57804749 -1.22684777 80.78235856 -5.6875 80.75 C-6.8616748 80.74480347 -6.8616748 80.74480347 -8.05957031 80.73950195 C-16.90271557 80.57516835 -25.23852269 78.9285701 -32.9375 74.4375 C-31.6175 71.1375 -30.2975 67.8375 -28.9375 64.4375 C-25.7497845 65.7125862 -22.92616933 66.91528219 -19.9375 68.5 C-12.87530318 72.03767401 -5.8143194 72.200153 1.875 70.6875 C5.38400102 69.31142117 6.97090413 68.57489381 9.0625 65.4375 C10.3225293 61.06830751 10.72383821 57.73142259 8.625 53.625 C2.86006394 48.70371312 -4.38735873 46.37723228 -11.39379883 43.71899414 C-15.84466649 41.99858395 -19.83911603 39.88492621 -23.9375 37.4375 C-23.9375 36.7775 -23.9375 36.1175 -23.9375 35.4375 C-24.80375 35.1590625 -24.80375 35.1590625 -25.6875 34.875 C-28.9944492 32.7622269 -30.59180524 30.03057333 -31.9375 26.4375 C-32.91197294 21.44891376 -32.37271405 17.58709113 -29.8125 13.1875 C-22.4794629 2.89265126 -12.26643974 -0.29499527 0 0 Z " fill="#FEFEFE" transform="translate(1157.9375,117.5625)"/>
<path d="M0 0 C1.44088989 0.01873169 1.44088989 0.01873169 2.91088867 0.0378418 C16.47955714 0.3750731 16.47955714 0.3750731 22.0625 3.4375 C23.45445915 7.61337745 21.88573219 9.57224776 20.0625 13.4375 C15.7145818 12.77872452 12.08832681 11.16285435 8.0625 9.4375 C1.15345374 7.53751228 -5.63743145 7.91815136 -11.9375 11.4375 C-14.03387701 14.58206551 -14.30306445 16.59844676 -14.59375 20.3046875 C-13.5076395 23.83454663 -10.95181495 25.56066239 -7.9375 27.4375 C-3.48425086 29.52025314 1.13271997 31.17204308 5.74414062 32.8671875 C13.82924397 35.98326312 21.15324482 40.06859754 26.0625 47.4375 C27.90465805 52.96397414 28.09566553 59.4733526 26.16796875 65.00390625 C25.0625 67.1875 25.0625 67.1875 23.0625 70.4375 C22.4025 70.4375 21.7425 70.4375 21.0625 70.4375 C21.0625 71.0975 21.0625 71.7575 21.0625 72.4375 C11.31754901 80.88312419 -0.46474966 81.24743884 -12.80175781 80.61914062 C-19.5352661 80.04646914 -25.73196639 77.9999286 -31.9375 75.4375 C-31.0625 67.8125 -31.0625 67.8125 -29.9375 64.4375 C-25.70843646 65.29698636 -22.25527751 67.27008816 -18.47265625 69.28125 C-10.8741421 72.7468281 -2.674685 72.0681429 5.0625 69.4375 C6.0525 69.1075 7.0425 68.7775 8.0625 68.4375 C10.27814978 64.47265303 10.54214474 60.91418425 10.0625 56.4375 C6.86209435 50.95735333 2.10615375 49.32726739 -3.5 47 C-5.30592539 46.21638838 -7.11062489 45.42994525 -8.9140625 44.640625 C-10.2139209 44.07504883 -10.2139209 44.07504883 -11.54003906 43.49804688 C-20.11870916 39.70316471 -26.7032015 36.44405435 -31.25 28 C-32.83092045 22.10747831 -32.16540737 17.60022861 -29.25390625 12.35546875 C-22.4627274 2.46090254 -11.40392986 -0.2742528 0 0 Z " fill="#FEFEFE" transform="translate(635.9375,117.5625)"/>
<path d="M0 0 C16.83 0 33.66 0 51 0 C51 2.31 51 4.62 51 7 C40.11 7 29.22 7 18 7 C18 16.24 18 25.48 18 35 C20.29839844 34.91621094 22.59679687 34.83242187 24.96484375 34.74609375 C27.1821702 34.66876814 29.39955023 34.59320843 31.61694336 34.51782227 C33.1622559 34.4643338 34.70750567 34.40899932 36.25268555 34.35180664 C38.46910051 34.27008567 40.68565384 34.1949283 42.90234375 34.12109375 C43.94454323 34.08054115 43.94454323 34.08054115 45.00779724 34.03916931 C46.67109776 33.98698892 48.33592339 33.98814893 50 34 C51 35 51 35 51.125 38 C51 41 51 41 50 42 C47.6243148 42.0883967 45.27791326 42.11530305 42.90234375 42.09765625 C41.83905602 42.09553383 41.83905602 42.09553383 40.75428772 42.09336853 C38.48198288 42.08775443 36.20977525 42.07519963 33.9375 42.0625 C32.40039204 42.05748681 30.86328255 42.05292359 29.32617188 42.04882812 C25.55071333 42.0386297 21.77546596 42.01905732 18 42 C18 51.24 18 60.48 18 70 C28.89 70 39.78 70 51 70 C51 72.64 51 75.28 51 78 C34.17 78 17.34 78 0 78 C0 52.26 0 26.52 0 0 Z " fill="#FEFEFE" transform="translate(680,119)"/>
</svg>
